<mxfile host="www.draw.io" modified="2019-11-11T13:28:37.302Z" agent="Mozilla/5.0 (Windows NT 10.0; Win64; x64) AppleWebKit/537.36 (KHTML, like Gecko) Chrome/73.0.3683.103 Safari/537.36" etag="i0KqNlG_5r-myQPMRxsB" version="12.2.3" type="github" pages="1">
  <diagram id="xPdPSuFB-NC_MfDIP4UY" name="第 1 页">
    <mxGraphModel dx="534" dy="805" grid="1" gridSize="10" guides="1" tooltips="1" connect="1" arrows="1" fold="1" page="1" pageScale="1" pageWidth="827" pageHeight="1169" math="0" shadow="0">
      <root>
        <mxCell id="0"/>
        <mxCell id="1" parent="0"/>
        <mxCell id="2Fad1N4QRYDIOa1chvaq-31" style="edgeStyle=orthogonalEdgeStyle;rounded=0;orthogonalLoop=1;jettySize=auto;html=1;exitX=0.5;exitY=1;exitDx=0;exitDy=0;entryX=0.5;entryY=0;entryDx=0;entryDy=0;" parent="1" source="2Fad1N4QRYDIOa1chvaq-1" target="2Fad1N4QRYDIOa1chvaq-2" edge="1">
          <mxGeometry relative="1" as="geometry"/>
        </mxCell>
        <mxCell id="2Fad1N4QRYDIOa1chvaq-1" value="开始" style="ellipse;whiteSpace=wrap;html=1;aspect=fixed;" parent="1" vertex="1">
          <mxGeometry x="180" y="50" width="50" height="50" as="geometry"/>
        </mxCell>
        <mxCell id="2Fad1N4QRYDIOa1chvaq-7" style="edgeStyle=orthogonalEdgeStyle;rounded=0;orthogonalLoop=1;jettySize=auto;html=1;exitX=0.5;exitY=1;exitDx=0;exitDy=0;entryX=0.5;entryY=0;entryDx=0;entryDy=0;" parent="1" source="2Fad1N4QRYDIOa1chvaq-9" target="2Fad1N4QRYDIOa1chvaq-4" edge="1">
          <mxGeometry relative="1" as="geometry"/>
        </mxCell>
        <mxCell id="2Fad1N4QRYDIOa1chvaq-11" style="edgeStyle=orthogonalEdgeStyle;rounded=0;orthogonalLoop=1;jettySize=auto;html=1;exitX=1;exitY=0.5;exitDx=0;exitDy=0;entryX=0;entryY=0.5;entryDx=0;entryDy=0;" parent="1" source="2Fad1N4QRYDIOa1chvaq-17" edge="1">
          <mxGeometry relative="1" as="geometry">
            <mxPoint x="450" y="260" as="targetPoint"/>
          </mxGeometry>
        </mxCell>
        <mxCell id="2Fad1N4QRYDIOa1chvaq-2" value="装载HelloApp了吗？" style="rhombus;whiteSpace=wrap;html=1;" parent="1" vertex="1">
          <mxGeometry x="145" y="200" width="120" height="120" as="geometry"/>
        </mxCell>
        <mxCell id="2Fad1N4QRYDIOa1chvaq-6" style="edgeStyle=orthogonalEdgeStyle;rounded=0;orthogonalLoop=1;jettySize=auto;html=1;exitX=0.5;exitY=1;exitDx=0;exitDy=0;entryX=0.5;entryY=0;entryDx=0;entryDy=0;" parent="1" source="2Fad1N4QRYDIOa1chvaq-4" target="2Fad1N4QRYDIOa1chvaq-5" edge="1">
          <mxGeometry relative="1" as="geometry"/>
        </mxCell>
        <mxCell id="2Fad1N4QRYDIOa1chvaq-4" value="链接" style="rounded=1;whiteSpace=wrap;html=1;" parent="1" vertex="1">
          <mxGeometry x="145" y="410" width="120" height="60" as="geometry"/>
        </mxCell>
        <mxCell id="2Fad1N4QRYDIOa1chvaq-29" style="edgeStyle=orthogonalEdgeStyle;rounded=0;orthogonalLoop=1;jettySize=auto;html=1;exitX=0.5;exitY=1;exitDx=0;exitDy=0;entryX=-0.017;entryY=0.617;entryDx=0;entryDy=0;entryPerimeter=0;" parent="1" source="2Fad1N4QRYDIOa1chvaq-5" target="2Fad1N4QRYDIOa1chvaq-24" edge="1">
          <mxGeometry relative="1" as="geometry"/>
        </mxCell>
        <mxCell id="2Fad1N4QRYDIOa1chvaq-5" value="初始化HelloApp" style="rounded=1;whiteSpace=wrap;html=1;" parent="1" vertex="1">
          <mxGeometry x="145" y="510" width="120" height="60" as="geometry"/>
        </mxCell>
        <mxCell id="2Fad1N4QRYDIOa1chvaq-9" value="Y" style="text;html=1;strokeColor=none;fillColor=none;align=center;verticalAlign=middle;whiteSpace=wrap;rounded=0;" parent="1" vertex="1">
          <mxGeometry x="185" y="340" width="40" height="20" as="geometry"/>
        </mxCell>
        <mxCell id="2Fad1N4QRYDIOa1chvaq-10" style="edgeStyle=orthogonalEdgeStyle;rounded=0;orthogonalLoop=1;jettySize=auto;html=1;exitX=0.5;exitY=1;exitDx=0;exitDy=0;entryX=0.5;entryY=0;entryDx=0;entryDy=0;" parent="1" source="2Fad1N4QRYDIOa1chvaq-2" target="2Fad1N4QRYDIOa1chvaq-9" edge="1">
          <mxGeometry relative="1" as="geometry">
            <mxPoint x="205" y="320" as="sourcePoint"/>
            <mxPoint x="205" y="410" as="targetPoint"/>
          </mxGeometry>
        </mxCell>
        <mxCell id="2Fad1N4QRYDIOa1chvaq-28" style="edgeStyle=orthogonalEdgeStyle;rounded=0;orthogonalLoop=1;jettySize=auto;html=1;exitX=0.5;exitY=1;exitDx=0;exitDy=0;entryX=1;entryY=0.5;entryDx=0;entryDy=0;" parent="1" source="2Fad1N4QRYDIOa1chvaq-12" target="2Fad1N4QRYDIOa1chvaq-24" edge="1">
          <mxGeometry relative="1" as="geometry"/>
        </mxCell>
        <mxCell id="2Fad1N4QRYDIOa1chvaq-12" value="抛出异常" style="rounded=1;whiteSpace=wrap;html=1;" parent="1" vertex="1">
          <mxGeometry x="650" y="230" width="120" height="60" as="geometry"/>
        </mxCell>
        <mxCell id="2Fad1N4QRYDIOa1chvaq-14" style="edgeStyle=orthogonalEdgeStyle;rounded=0;orthogonalLoop=1;jettySize=auto;html=1;exitX=1;exitY=0.5;exitDx=0;exitDy=0;entryX=0;entryY=0.5;entryDx=0;entryDy=0;" parent="1" source="2Fad1N4QRYDIOa1chvaq-15" target="2Fad1N4QRYDIOa1chvaq-12" edge="1">
          <mxGeometry relative="1" as="geometry"/>
        </mxCell>
        <mxCell id="2Fad1N4QRYDIOa1chvaq-19" style="edgeStyle=orthogonalEdgeStyle;rounded=0;orthogonalLoop=1;jettySize=auto;html=1;exitX=0.5;exitY=1;exitDx=0;exitDy=0;entryX=1;entryY=0.5;entryDx=0;entryDy=0;" parent="1" source="2Fad1N4QRYDIOa1chvaq-22" target="2Fad1N4QRYDIOa1chvaq-4" edge="1">
          <mxGeometry relative="1" as="geometry"/>
        </mxCell>
        <mxCell id="2Fad1N4QRYDIOa1chvaq-13" value="ClassLoader装载顺利？" style="rhombus;whiteSpace=wrap;html=1;" parent="1" vertex="1">
          <mxGeometry x="450" y="220" width="80" height="80" as="geometry"/>
        </mxCell>
        <mxCell id="2Fad1N4QRYDIOa1chvaq-15" value="N" style="text;html=1;strokeColor=none;fillColor=none;align=center;verticalAlign=middle;whiteSpace=wrap;rounded=0;" parent="1" vertex="1">
          <mxGeometry x="570" y="250" width="40" height="20" as="geometry"/>
        </mxCell>
        <mxCell id="2Fad1N4QRYDIOa1chvaq-16" style="edgeStyle=orthogonalEdgeStyle;rounded=0;orthogonalLoop=1;jettySize=auto;html=1;exitX=1;exitY=0.5;exitDx=0;exitDy=0;entryX=0;entryY=0.5;entryDx=0;entryDy=0;" parent="1" source="2Fad1N4QRYDIOa1chvaq-13" target="2Fad1N4QRYDIOa1chvaq-15" edge="1">
          <mxGeometry relative="1" as="geometry">
            <mxPoint x="530" y="260" as="sourcePoint"/>
            <mxPoint x="630" y="260" as="targetPoint"/>
          </mxGeometry>
        </mxCell>
        <mxCell id="2Fad1N4QRYDIOa1chvaq-17" value="N&lt;br&gt;" style="text;html=1;strokeColor=none;fillColor=none;align=center;verticalAlign=middle;whiteSpace=wrap;rounded=0;" parent="1" vertex="1">
          <mxGeometry x="330" y="250" width="40" height="20" as="geometry"/>
        </mxCell>
        <mxCell id="2Fad1N4QRYDIOa1chvaq-18" style="edgeStyle=orthogonalEdgeStyle;rounded=0;orthogonalLoop=1;jettySize=auto;html=1;exitX=1;exitY=0.5;exitDx=0;exitDy=0;entryX=0;entryY=0.5;entryDx=0;entryDy=0;" parent="1" source="2Fad1N4QRYDIOa1chvaq-2" target="2Fad1N4QRYDIOa1chvaq-17" edge="1">
          <mxGeometry relative="1" as="geometry">
            <mxPoint x="265" y="260" as="sourcePoint"/>
            <mxPoint x="450" y="260" as="targetPoint"/>
          </mxGeometry>
        </mxCell>
        <mxCell id="2Fad1N4QRYDIOa1chvaq-22" value="Y" style="text;html=1;strokeColor=none;fillColor=none;align=center;verticalAlign=middle;whiteSpace=wrap;rounded=0;" parent="1" vertex="1">
          <mxGeometry x="470" y="350" width="40" height="20" as="geometry"/>
        </mxCell>
        <mxCell id="2Fad1N4QRYDIOa1chvaq-23" style="edgeStyle=orthogonalEdgeStyle;rounded=0;orthogonalLoop=1;jettySize=auto;html=1;exitX=0.5;exitY=1;exitDx=0;exitDy=0;entryX=0.5;entryY=0;entryDx=0;entryDy=0;" parent="1" source="2Fad1N4QRYDIOa1chvaq-13" target="2Fad1N4QRYDIOa1chvaq-22" edge="1">
          <mxGeometry relative="1" as="geometry">
            <mxPoint x="490" y="300" as="sourcePoint"/>
            <mxPoint x="265" y="440" as="targetPoint"/>
          </mxGeometry>
        </mxCell>
        <mxCell id="2Fad1N4QRYDIOa1chvaq-24" value="结束" style="ellipse;whiteSpace=wrap;html=1;aspect=fixed;" parent="1" vertex="1">
          <mxGeometry x="440" y="610" width="50" height="50" as="geometry"/>
        </mxCell>
      </root>
    </mxGraphModel>
  </diagram>
</mxfile>
